<svg xmlns="http://www.w3.org/2000/svg" width="187" height="55" viewBox="0 0 187 55"><g transform="translate(-1357 -2729)"><rect width="187" height="55" rx="27.5" transform="translate(1357 2729)" fill="#fff"/><path d="M7.957,22.308A1.243,1.243,0,0,0,9.2,23.547h1.239v4.338a1.859,1.859,0,0,0,3.718,0V23.547h2.479v4.338a1.859,1.859,0,1,0,3.718,0V23.547H21.59a1.243,1.243,0,0,0,1.239-1.239V9.915H7.957ZM4.859,9.915A1.857,1.857,0,0,0,3,11.774v8.675a1.859,1.859,0,0,0,3.718,0V11.774A1.857,1.857,0,0,0,4.859,9.915Zm21.069,0a1.857,1.857,0,0,0-1.859,1.859v8.675a1.859,1.859,0,0,0,3.718,0V11.774A1.857,1.857,0,0,0,25.928,9.915Zm-6.16-7.238,1.611-1.611a.614.614,0,0,0,0-.88.614.614,0,0,0-.88,0L18.665,2.02a7.237,7.237,0,0,0-3.272-.781,7.342,7.342,0,0,0-3.3.781L10.25.186a.614.614,0,0,0-.88,0,.614.614,0,0,0,0,.88l1.624,1.624A7.415,7.415,0,0,0,7.957,8.675H22.829A7.393,7.393,0,0,0,19.768,2.677ZM12.915,6.2H11.675V4.957h1.239Zm6.2,0H17.872V4.957h1.239Z" transform="translate(1388.307 2741.628)" fill="#14274e"/><text transform="translate(1434 2763)" fill="#14274e" font-size="20" font-family="Nunito-Bold, Nunito" font-weight="700"><tspan x="0" y="0">Android</tspan></text></g></svg>