<svg xmlns="http://www.w3.org/2000/svg" width="179.657" height="58.768" viewBox="0 0 179.657 58.768"><g transform="translate(-508.754 -702.752)"><rect width="179.657" height="58.768" rx="6" transform="translate(508.754 702.752)"/><path d="M1397,1986.457a29.183,29.183,0,0,1-2.631,4.912c-1.71,2.6-4.118,5.839-7.1,5.865-2.653.025-3.332-1.724-6.931-1.706s-4.349,1.738-7,1.713c-2.983-.028-5.266-2.951-6.974-5.553-4.777-7.273-5.277-15.809-2.33-20.346a10.571,10.571,0,0,1,8.5-5.113c3.16,0,5.151,1.735,7.766,1.735,2.536,0,4.081-1.738,7.738-1.738a10.32,10.32,0,0,1,7.779,4.108c-6.835,3.747-5.726,13.513,1.182,16.123" transform="translate(-841.401 -1244.857)" fill="#fff"/><path d="M1436.982,1974.224l-6.843,20.146h3.133l2.043-6.185h6.628l2.1,6.185h3.221l-6.874-20.146Zm1.625,3.312c.231.9.481,1.834.8,2.842l1.844,5.342H1436l1.818-5.376c.276-.872.541-1.814.786-2.808" transform="translate(-866.824 -1247.85)" fill="#fff"/><path d="M1467.023,1982.571a5.7,5.7,0,0,0-4.846,2.324l-.123-2h-2.787l.017.256c.083,1.247.117,2.62.117,4.595v15.528h3.047v-7.245a5.356,5.356,0,0,0,4.169,1.79,6.3,6.3,0,0,0,4.617-1.964,8.326,8.326,0,0,0,2.04-5.863,8.127,8.127,0,0,0-1.772-5.355,5.8,5.8,0,0,0-4.479-2.062m-.759,2.523c2.718,0,3.934,2.516,3.934,5.01,0,3.217-1.552,5.218-4.051,5.218a3.7,3.7,0,0,1-3.591-2.83,3.937,3.937,0,0,1-.107-.986v-2.452a4.484,4.484,0,0,1,.1-.752c.015-.083.031-.165.045-.247a3.855,3.855,0,0,1,3.674-2.961" transform="translate(-877.726 -1250.974)" fill="#fff"/><path d="M1492.107,1982.571a5.707,5.707,0,0,0-4.847,2.324l-.121-2h-2.787l.015.256c.085,1.252.12,2.62.12,4.595v15.528h3.047v-7.245a5.351,5.351,0,0,0,4.166,1.79,6.3,6.3,0,0,0,4.62-1.964,8.328,8.328,0,0,0,2.038-5.863,8.12,8.12,0,0,0-1.772-5.355,5.8,5.8,0,0,0-4.478-2.062m-.759,2.523c2.717,0,3.932,2.516,3.932,5.01,0,3.217-1.553,5.218-4.048,5.218a3.7,3.7,0,0,1-3.591-2.83,3.879,3.879,0,0,1-.108-.986v-2.452a4.344,4.344,0,0,1,.1-.754c.015-.083.03-.163.043-.245a3.857,3.857,0,0,1,3.674-2.961" transform="translate(-887.112 -1250.974)" fill="#fff"/><path d="M1523.827,1982.569c-2.844-1.1-3.755-1.969-3.755-3.568,0-1.348,1.07-2.707,3.464-2.707a6.923,6.923,0,0,1,3.578.9l.257.16.862-2.543-.172-.1a8.817,8.817,0,0,0-4.437-1c-3.888,0-6.6,2.3-6.6,5.579,0,2.648,1.7,4.5,5.351,5.828,2.586.966,3.547,1.958,3.547,3.656,0,1.922-1.484,3.116-3.873,3.116a8.343,8.343,0,0,1-4.4-1.248l-.261-.167-.818,2.6.149.1a10.433,10.433,0,0,0,5.151,1.327c5.24,0,7.1-3.2,7.1-5.932,0-2.819-1.489-4.559-5.143-6" transform="translate(-899.17 -1247.658)" fill="#fff"/><path d="M1542.056,1977.536l-2.988.938v2.534h-2.189v2.434h2.189v7.462a5.7,5.7,0,0,0,1.054,3.866,3.906,3.906,0,0,0,2.949,1.161,7.191,7.191,0,0,0,2.357-.366l.17-.059-.145-2.441-.294.092a4.707,4.707,0,0,1-1.418.162c-1.182,0-1.686-.749-1.686-2.5v-7.374h3.679v-2.434h-3.679Z" transform="translate(-906.77 -1249.09)" fill="#fff"/><path d="M1558.77,1982.57c-4.266,0-7.245,3.183-7.245,7.737,0,4.42,2.883,7.507,7.01,7.507h.028c3.49,0,7.244-2.431,7.244-7.769a7.7,7.7,0,0,0-1.943-5.389,6.775,6.775,0,0,0-5.094-2.086m-.088,2.406c2.742,0,3.99,2.674,3.99,5.159,0,3.056-1.706,5.273-4.05,5.273h-.03c-2.311,0-3.99-2.181-3.99-5.186,0-2.611,1.261-5.246,4.08-5.246" transform="translate(-912.251 -1250.975)" fill="#fff"/><path d="M1584.729,1982.711l-.183-.047a2.976,2.976,0,0,0-.758-.093,4.347,4.347,0,0,0-3.82,2.453l-.089-2.133h-2.736l.017.255c.082,1.208.115,2.562.115,4.39l-.028,9.958h3.047v-7.769a7.658,7.658,0,0,1,.087-1.182,3.368,3.368,0,0,1,3.206-3.071,7.855,7.855,0,0,1,.818.05l.325.035Z" transform="translate(-921.839 -1250.975)" fill="#fff"/><path d="M1596.1,1982.523c-4.056,0-6.89,3.244-6.89,7.885,0,4.469,2.819,7.359,7.183,7.359a11.7,11.7,0,0,0,4.826-.925l.183-.084-.587-2.272-.253.1a9.444,9.444,0,0,1-3.818.683,4.238,4.238,0,0,1-4.568-4.419l9.838.031.04-.195a6.8,6.8,0,0,0,.093-1.271c0-3.182-1.585-6.9-6.049-6.9m-.2,2.318a3.008,3.008,0,0,1,2.238.856,4.331,4.331,0,0,1,1.05,2.834h-6.951c.282-1.759,1.383-3.691,3.663-3.691" transform="translate(-926.354 -1250.956)" fill="#fff"/><path d="M1430.139,1952.114a21.968,21.968,0,0,1,2.923-.2,6.515,6.515,0,0,1,4.292,1.174,4.174,4.174,0,0,1,1.509,3.438,4.83,4.83,0,0,1-1.526,3.707,7.082,7.082,0,0,1-4.7,1.371,21.1,21.1,0,0,1-2.5-.114Zm1.383,8.445a10.015,10.015,0,0,0,1.383.056c2.925.013,4.512-1.471,4.512-4.044.016-2.278-1.4-3.678-4.29-3.678a8.74,8.74,0,0,0-1.6.126Z" transform="translate(-866.824 -1239.502)" fill="#fff"/><path d="M1449.735,1963.232a3.436,3.436,0,0,1-3.646-3.521,3.531,3.531,0,0,1,3.773-3.634,3.407,3.407,0,0,1,3.661,3.507,3.544,3.544,0,0,1-3.771,3.648Zm.047-.934a2.437,2.437,0,0,0,2.311-2.673,2.326,2.326,0,1,0-2.327,2.673Z" transform="translate(-872.793 -1241.06)" fill="#fff"/><path d="M1460.62,1956.323l1.022,3.466c.2.762.41,1.483.551,2.192h.048c.172-.693.424-1.43.674-2.178l1.241-3.48h1.164l1.181,3.422c.281.806.5,1.543.674,2.236h.046a19.01,19.01,0,0,1,.582-2.222l1.085-3.436h1.367l-2.453,6.846h-1.257l-1.163-3.266a22.311,22.311,0,0,1-.677-2.265h-.031a18.447,18.447,0,0,1-.692,2.278l-1.225,3.253H1461.5l-2.3-6.846Z" transform="translate(-877.702 -1241.151)" fill="#fff"/><path d="M1479.037,1958.085c0-.724-.016-1.289-.061-1.855h1.224l.08,1.118h.031a2.878,2.878,0,0,1,2.513-1.273,2.6,2.6,0,0,1,2.689,2.913v4.09h-1.381v-3.948c0-1.1-.457-2.035-1.762-2.035a1.976,1.976,0,0,0-1.855,1.271,1.719,1.719,0,0,0-.093.58v4.132h-1.385Z" transform="translate(-885.101 -1241.059)" fill="#fff"/><rect width="1.384" height="10.045" transform="translate(602.663 711.975)" fill="#fff"/><path d="M1501.666,1963.232a3.437,3.437,0,0,1-3.647-3.521,3.53,3.53,0,0,1,3.774-3.634,3.408,3.408,0,0,1,3.661,3.507,3.545,3.545,0,0,1-3.774,3.648Zm.045-.934a2.435,2.435,0,0,0,2.312-2.673,2.327,2.327,0,1,0-2.325,2.673Z" transform="translate(-892.228 -1241.06)" fill="#fff"/><path d="M1517.692,1961.438a10.408,10.408,0,0,0,.11,1.64h-1.241l-.127-.863h-.047a2.924,2.924,0,0,1-2.326,1.018,2.073,2.073,0,0,1-2.324-1.966c0-1.656,1.633-2.56,4.573-2.546v-.142c0-.566-.172-1.6-1.729-1.584a3.953,3.953,0,0,0-2,.507l-.315-.833a5.363,5.363,0,0,1,2.515-.593c2.342,0,2.907,1.426,2.907,2.8Zm-1.351-1.854c-1.508-.029-3.223.214-3.223,1.543a1.155,1.155,0,0,0,1.289,1.186,1.921,1.921,0,0,0,1.873-1.145,1.132,1.132,0,0,0,.062-.4Z" transform="translate(-897.36 -1241.06)" fill="#fff"/><path d="M1531.041,1951.214v8.274c0,.608.017,1.3.062,1.769h-1.241l-.062-1.189h-.032a2.847,2.847,0,0,1-2.579,1.344,3.265,3.265,0,0,1-3.269-3.48,3.415,3.415,0,0,1,3.412-3.679,2.612,2.612,0,0,1,2.294,1.033h.032v-4.073Zm-1.383,5.983a2.065,2.065,0,0,0-.065-.538,2,2,0,0,0-1.995-1.427,2.342,2.342,0,0,0-2.279,2.631,2.271,2.271,0,0,0,2.248,2.546,2.055,2.055,0,0,0,2.026-1.485,1.933,1.933,0,0,0,.065-.537Z" transform="translate(-901.92 -1239.241)" fill="#fff"/><path d="M1547.06,1963.232a3.437,3.437,0,0,1-3.647-3.521,3.531,3.531,0,0,1,3.774-3.634,3.407,3.407,0,0,1,3.661,3.507,3.544,3.544,0,0,1-3.772,3.648Zm.048-.934a2.435,2.435,0,0,0,2.311-2.673,2.326,2.326,0,1,0-2.327,2.673Z" transform="translate(-909.215 -1241.06)" fill="#fff"/><path d="M1558.049,1958.085c0-.724-.016-1.289-.064-1.855h1.226l.08,1.118h.031a2.879,2.879,0,0,1,2.516-1.273,2.6,2.6,0,0,1,2.688,2.913v4.09h-1.384v-3.948c0-1.1-.455-2.035-1.76-2.035a1.976,1.976,0,0,0-1.856,1.271,1.707,1.707,0,0,0-.093.58v4.132h-1.382Z" transform="translate(-914.669 -1241.059)" fill="#fff"/><path d="M1578.5,1953.7v1.639h1.981v.948H1578.5v3.694c0,.848.269,1.329,1.039,1.329a2.867,2.867,0,0,0,.8-.085l.062.947a4.083,4.083,0,0,1-1.227.17,2.1,2.1,0,0,1-1.493-.521,2.491,2.491,0,0,1-.533-1.8v-3.734h-1.179v-.948h1.179v-1.257Z" transform="translate(-921.4 -1240.171)" fill="#fff"/><path d="M1585.668,1951.214h1.383v4.272h.032a2.33,2.33,0,0,1,.991-.876,2.9,2.9,0,0,1,1.414-.355,2.605,2.605,0,0,1,2.658,2.93v4.073h-1.385v-3.933c0-1.118-.455-2.036-1.76-2.036a1.991,1.991,0,0,0-1.856,1.245,1.346,1.346,0,0,0-.094.593v4.131h-1.383Z" transform="translate(-925.029 -1239.241)" fill="#fff"/><path d="M1600.066,1959.857a2.318,2.318,0,0,0,2.594,2.377,5.8,5.8,0,0,0,2.109-.339l.252.875a6.751,6.751,0,0,1-2.549.44c-2.326,0-3.74-1.4-3.74-3.449a3.484,3.484,0,0,1,3.583-3.708,3,3,0,0,1,3.128,3.224,2.889,2.889,0,0,1-.047.6Zm4.041-.892a1.838,1.838,0,0,0-1.9-2.022,2.156,2.156,0,0,0-2.124,2.022Z" transform="translate(-929.919 -1241.05)" fill="#fff"/></g></svg>