<svg xmlns="http://www.w3.org/2000/svg" width="187" height="55" viewBox="0 0 187 55"><g transform="translate(-1565 -2729)"><rect width="187" height="55" rx="27.5" transform="translate(1565 2729)" fill="#fff"/><g transform="translate(1604.202 2737.496)"><path d="M23.456,10.821c-2.362,0-3.361,1.16-5.006,1.16-1.687,0-2.974-1.153-5.02-1.153a6.821,6.821,0,0,0-5.5,3.4c-1.905,3.023-1.582,8.719,1.5,13.57,1.1,1.737,2.58,3.684,4.514,3.705h.035c1.68,0,2.18-1.132,4.493-1.146h.035c2.278,0,2.735,1.139,4.409,1.139h.035c1.934-.021,3.487-2.18,4.591-3.909a19.232,19.232,0,0,0,1.7-3.277,6.016,6.016,0,0,1-.766-10.751,6.612,6.612,0,0,0-5.027-2.742Z" fill="#14274e"/><path d="M22.936,4.5a6.149,6.149,0,0,0-4.008,2.222A5.593,5.593,0,0,0,17.62,11h.112A5.22,5.22,0,0,0,21.656,8.88a5.989,5.989,0,0,0,1.28-4.38Z" fill="#14274e"/></g><text transform="translate(1651 2763)" fill="#14274e" font-size="20" font-family="Nunito-Bold, Nunito" font-weight="700"><tspan x="0" y="0">Apple</tspan></text></g></svg>