<svg xmlns="http://www.w3.org/2000/svg" width="58.396" height="53.893" viewBox="0 0 58.396 53.893">
  <g id="crackers" transform="translate(1.958 -18.238) rotate(33)">
    <line id="Line_65" data-name="Line 65" y2="8.291" transform="translate(46.594 10.199)" fill="none" stroke="#1c528a" stroke-linecap="round" stroke-linejoin="round" stroke-width="3"/>
    <line id="Line_66" data-name="Line 66" transform="translate(46.594 2.5)" fill="none" stroke="#1c528a" stroke-linecap="round" stroke-linejoin="round" stroke-width="3"/>
    <line id="Line_67" data-name="Line 67" transform="translate(24.816 41.809)" fill="none" stroke="#fdc863" stroke-linecap="round" stroke-linejoin="round" stroke-width="3"/>
    <line id="Line_68" data-name="Line 68" transform="translate(16.954 18.224)" fill="none" stroke="#2b4d59" stroke-linecap="round" stroke-linejoin="round" stroke-width="3"/>
    <path id="Path_13134" data-name="Path 13134" d="M9.75,6.445A13.68,13.68,0,0,1,26.456,8.529" transform="translate(12.118 5.882)" fill="none" stroke="#2b4d59" stroke-linecap="round" stroke-linejoin="round" stroke-width="3"/>
    <line id="Line_69" data-name="Line 69" transform="translate(75.918 18.224)" fill="none" stroke="#69cdcd" stroke-linecap="round" stroke-linejoin="round" stroke-width="3"/>
    <path id="Path_13135" data-name="Path 13135" d="M34.706,6.445A13.68,13.68,0,0,0,18,8.529" transform="translate(36.298 5.882)" fill="none" stroke="#69cdcd" stroke-linecap="round" stroke-linejoin="round" stroke-width="3"/>
    <path id="Path_13136" data-name="Path 13136" d="M27.335,7.5A15.724,15.724,0,0,0,12.162,19.293" transform="translate(13.204 14.655)" fill="none" stroke="#fdc863" stroke-linecap="round" stroke-linejoin="round" stroke-width="3"/>
    <line id="Line_70" data-name="Line 70" transform="translate(68.056 41.809)" fill="none" stroke="#e45865" stroke-linecap="round" stroke-linejoin="round" stroke-width="3"/>
    <path id="Path_13137" data-name="Path 13137" d="M17.5,7.5A15.724,15.724,0,0,1,32.673,19.293" transform="translate(34.833 14.655)" fill="none" stroke="#e45865" stroke-linecap="round" stroke-linejoin="round" stroke-width="3"/>
  </g>
</svg>
