<svg xmlns="http://www.w3.org/2000/svg" xmlns:xlink="http://www.w3.org/1999/xlink" width="299" height="299" viewBox="0 0 299 299"><defs><filter id="a" x="0" y="0" width="299" height="299" filterUnits="userSpaceOnUse"><feOffset input="SourceAlpha"/><feGaussianBlur stdDeviation="33" result="b"/><feFlood flood-opacity="0.071"/><feComposite operator="in" in2="b"/><feComposite in="SourceGraphic"/></filter></defs><g transform="translate(99.216 99.355)"><g transform="matrix(1, 0, 0, 1, -99.22, -99.36)" filter="url(#a)"><circle cx="50.5" cy="50.5" r="50.5" transform="translate(99 99)" fill="#fff"/></g><g transform="translate(23.354 23.353)"><path d="M1.063,19.259V3.465A2.27,2.27,0,0,1,3.914,1.133a27.322,27.322,0,0,1,17.9,17.9,2.27,2.27,0,0,1-2.332,2.851H3.692A2.628,2.628,0,0,1,1.063,19.259Z" transform="translate(32.23 -1.038)" fill="#edb538" stroke="#e5b652" stroke-width="1"/><path d="M54.8,30.965A27.258,27.258,0,1,1,24.355.517a2.329,2.329,0,0,1,2.525,2.43v21.1a4.393,4.393,0,0,0,4.393,4.393h21.1A2.329,2.329,0,0,1,54.8,30.965Z" transform="translate(-0.5 -0.5)" fill="none" stroke="#14274e" stroke-width="2"/></g></g></svg>