<svg xmlns="http://www.w3.org/2000/svg" xmlns:xlink="http://www.w3.org/1999/xlink" width="176.134" height="57.615" viewBox="0 0 176.134 57.615"><defs><clipPath id="a"><path d="M1047.657,1957.178v36.038a.792.792,0,0,0,.489.824l19.184-19.023-19.024-18.868a.958.958,0,0,0-.649,1.029" transform="translate(-1047.657 -1956.149)" fill="none"/></clipPath><linearGradient id="b" x1="-33.322" y1="8.651" x2="-33.291" y2="8.651" gradientUnits="objectBoundingBox"><stop offset="0" stop-color="#257cb0"/><stop offset="0.365" stop-color="#4e9eb5"/><stop offset="0.785" stop-color="#78c1ba"/><stop offset="1" stop-color="#89cfbd"/></linearGradient><clipPath id="c"><path d="M1048.693,1956.128l19.027,18.866,5.284-5.24-7.942-4.587-.124-.07,0,0-.013-.008h0l-.009,0-.015-.011-.008-.006-.013-.008h0l-.019-.01-.006,0-15.107-8.724a1.581,1.581,0,0,0-.77-.226,1.025,1.025,0,0,0-.273.035" transform="translate(-1048.693 -1956.093)" fill="none"/></clipPath><linearGradient id="d" x1="-26.994" y1="17.343" x2="-26.968" y2="17.343" gradientUnits="objectBoundingBox"><stop offset="0" stop-color="#52c1ad"/><stop offset="0.132" stop-color="#65c6aa"/><stop offset="0.729" stop-color="#bbde9e"/><stop offset="1" stop-color="#dee89a"/></linearGradient><clipPath id="e"><path d="M1048.437,2005.324a1.051,1.051,0,0,0,.839-.139l.42-.244c2.441-1.41,14.455-8.346,15.23-8.793l0,0,.009,0h0l.005,0,.011-.007.006,0,0,0h0l7.942-4.583-5.283-5.241Z" transform="translate(-1048.437 -1986.299)" fill="none"/></clipPath><linearGradient id="f" x1="-26.812" y1="16.175" x2="-26.786" y2="16.175" gradientUnits="objectBoundingBox"><stop offset="0" stop-color="#ec413d"/><stop offset="0.406" stop-color="#be4569"/><stop offset="0.796" stop-color="#98488e"/><stop offset="1" stop-color="#8a4a9d"/></linearGradient><clipPath id="g"><path d="M1079.1,1983.165l5.284,5.239,0,0h0l.014-.009,0,0,.019-.01,0,0,.115-.067c.043-.024.093-.055.15-.088l.021-.011.035-.02.051-.029.036-.022.033-.019.012-.007.007,0,.008,0,.017-.011.013-.006.006,0,.147-.085.016-.01c.088-.051.182-.1.281-.162h0c.393-.225.875-.5,1.4-.807l0,0,.438-.253.043-.024.033-.021.013-.006.1-.056,4.641-2.68c.843-.5.781-1.174.091-1.582l-.03-.018-.032-.018c-.756-.41-7.688-4.439-7.688-4.439Z" transform="translate(-1079.097 -1977.925)" fill="none"/></clipPath><linearGradient id="h" x1="-48.976" y1="29.978" x2="-48.931" y2="29.978" gradientUnits="objectBoundingBox"><stop offset="0" stop-color="#f58879"/><stop offset="1" stop-color="#fec874"/></linearGradient></defs><g transform="translate(-310.76 -703.328)"><path d="M4.551,0H171.584a4.551,4.551,0,0,1,4.551,4.551V53.065a4.551,4.551,0,0,1-4.551,4.551H4.551A4.551,4.551,0,0,1,0,53.065V4.551A4.551,4.551,0,0,1,4.551,0Z" transform="translate(310.76 703.328)"/><g transform="translate(323.972 715.063)"><g transform="translate(0)" clip-path="url(#a)"><rect width="19.674" height="37.891" transform="translate(0)" fill="url(#b)"/></g></g><g transform="translate(324.62 715.027)"><g transform="translate(0 0)" clip-path="url(#c)"><rect width="24.31" height="18.902" transform="translate(0)" fill="url(#d)"/></g></g><g transform="translate(324.46 733.93)" clip-path="url(#e)"><rect width="24.47" height="19.101" transform="translate(0 0)" fill="url(#f)"/></g><g transform="translate(343.646 728.69)" clip-path="url(#g)"><rect width="13.787" height="10.48" fill="url(#h)"/></g><path d="M1242.441,1991.453a4.926,4.926,0,0,1-2.024-.408,3.833,3.833,0,0,1-1.537-1.259h-.124a15.413,15.413,0,0,1,.124,1.885v4.669h-1.718V1979.9h1.4l.238,1.554h.083a3.991,3.991,0,0,1,1.544-1.346,4.68,4.68,0,0,1,2.018-.415,4.19,4.19,0,0,1,3.483,1.543,8.215,8.215,0,0,1-.018,8.671,4.2,4.2,0,0,1-3.465,1.547m-.249-10.3a3.04,3.04,0,0,0-2.515.963,4.956,4.956,0,0,0-.8,3.065v.381a5.673,5.673,0,0,0,.8,3.422,3.03,3.03,0,0,0,2.556,1.031,2.662,2.662,0,0,0,2.305-1.189,5.657,5.657,0,0,0,.833-3.284,5.44,5.44,0,0,0-.833-3.256,2.738,2.738,0,0,0-2.346-1.133" transform="translate(-794.604 -1249.897)" fill="#f7f7f8"/><rect width="1.718" height="16.109" transform="translate(454.809 725.239)" fill="#f7f7f8"/><path d="M1270.593,1991.26l-.341-1.616h-.084a4.752,4.752,0,0,1-1.692,1.443,5.139,5.139,0,0,1-2.106.379,3.8,3.8,0,0,1-2.647-.87,3.173,3.173,0,0,1-.958-2.474q0-3.439,5.5-3.6l1.926-.06v-.7a2.882,2.882,0,0,0-.574-1.971,2.366,2.366,0,0,0-1.838-.637,7.512,7.512,0,0,0-3.209.867l-.529-1.313a8.116,8.116,0,0,1,1.839-.715,7.946,7.946,0,0,1,2-.259,4.308,4.308,0,0,1,3.007.9,3.762,3.762,0,0,1,.98,2.889v7.745Zm-3.881-1.213a3.487,3.487,0,0,0,2.521-.879,3.261,3.261,0,0,0,.916-2.466v-1.023l-1.718.071a6.26,6.26,0,0,0-2.955.638,1.923,1.923,0,0,0-.906,1.757,1.777,1.777,0,0,0,.564,1.417,2.346,2.346,0,0,0,1.579.485" transform="translate(-804.188 -1249.91)" fill="#f7f7f8"/><path d="M1278.9,1980.022h1.843l2.483,6.471a25.073,25.073,0,0,1,1.017,3.2h.082c.089-.351.278-.952.564-1.809s1.223-3.47,2.812-7.861h1.844l-4.878,12.92a6.446,6.446,0,0,1-1.694,2.719,3.586,3.586,0,0,1-2.374.8,7.056,7.056,0,0,1-1.555-.174v-1.378a5.991,5.991,0,0,0,1.275.124,2.629,2.629,0,0,0,2.527-1.988l.63-1.616Z" transform="translate(-810.227 -1250.02)" fill="#f7f7f8"/><path d="M1189.428,1981.2a3.868,3.868,0,0,1-.31,6.575,1.659,1.659,0,0,0-.665,1.163,1.3,1.3,0,0,0,.618,1.02l.854.663c1.046.878,1.992,1.687,1.992,3.325,0,2.23-2.16,4.484-6.24,4.484-3.441,0-5.1-1.637-5.1-3.392a3.418,3.418,0,0,1,1.828-2.9,10.249,10.249,0,0,1,4.532-1.092,2.483,2.483,0,0,1-.711-1.612,2.142,2.142,0,0,1,.237-.928c-.262.023-.522.048-.76.048a3.753,3.753,0,0,1-3.939-3.727,4.268,4.268,0,0,1,1.518-3.178,6.476,6.476,0,0,1,4.25-1.307h4.888l-1.52.855Zm-1.686,10.538a3.7,3.7,0,0,0-.545-.025,9.541,9.541,0,0,0-2.492.381,2.67,2.67,0,0,0-2.042,2.446c0,1.682,1.638,2.9,4.178,2.9,2.278,0,3.488-1.095,3.488-2.566,0-1.212-.782-1.85-2.587-3.133m.689-4.509a2.4,2.4,0,0,0,.591-1.733c0-1.709-1.02-4.366-2.988-4.366a2.216,2.216,0,0,0-1.662.784,2.739,2.739,0,0,0-.523,1.755c0,1.59.926,4.224,2.969,4.224a2.435,2.435,0,0,0,1.614-.664" transform="translate(-773.427 -1250.139)" fill="#f7f7f8"/><path d="M1167.389,1991.155a5.592,5.592,0,0,1-5.783-5.593,5.872,5.872,0,0,1,6.138-5.759,5.541,5.541,0,0,1,5.662,5.593,5.79,5.79,0,0,1-6.017,5.759m2.96-1.919a4.29,4.29,0,0,0,.711-2.629c0-2.088-.994-6.068-3.933-6.068a3.306,3.306,0,0,0-2.132.806,3.586,3.586,0,0,0-1.091,2.892c0,2.344,1.161,6.205,4.031,6.205a3.033,3.033,0,0,0,2.415-1.207" transform="translate(-766.329 -1249.938)" fill="#f7f7f8"/><path d="M1146.863,1991.155a5.592,5.592,0,0,1-5.781-5.593,5.873,5.873,0,0,1,6.138-5.759,5.54,5.54,0,0,1,5.662,5.593,5.79,5.79,0,0,1-6.019,5.759m2.963-1.919a4.3,4.3,0,0,0,.711-2.629c0-2.088-1-6.068-3.935-6.068a3.315,3.315,0,0,0-2.133.806,3.591,3.591,0,0,0-1.089,2.892c0,2.344,1.161,6.205,4.03,6.205a3.033,3.033,0,0,0,2.416-1.207" transform="translate(-758.648 -1249.938)" fill="#f7f7f8"/><path d="M1128.374,1987.576l-3.407.786a25.464,25.464,0,0,1-3.93.4c-6.576,0-9.076-4.837-9.076-8.625,0-4.622,3.548-8.908,9.623-8.908a13.706,13.706,0,0,1,3.645.5,9.238,9.238,0,0,1,3.145,1.478l-1.978,1.881-.834.188.6-.952a6.811,6.811,0,0,0-5.1-2.237c-3.764,0-6.6,2.859-6.6,7.028a8.424,8.424,0,0,0,8.433,8.693,7.106,7.106,0,0,0,3.026-.594v-3.835l-3.6.191,1.905-1.025h5.049l-.618.6a.546.546,0,0,0-.237.379c-.026.214-.048.908-.048,1.146Z" transform="translate(-747.751 -1246.731)" fill="#f7f7f8"/><path d="M1203.729,1986.572c-.787-.073-.952-.214-.952-1.145v-13.483c.005-.052.008-.105.012-.153.1-.834.336-.978,1.074-1.406h-3.409l-1.786.858h1.821v14.711c0,.474-.094.545-.642,1.261h4.216l.883-.524c-.405-.049-.81-.072-1.215-.119" transform="translate(-780.201 -1246.414)" fill="#f7f7f8"/><path d="M1217.082,1990.321c-.259.141-.518.309-.777.426a5.516,5.516,0,0,1-2.3.449,5.058,5.058,0,0,1-3.146-.925,6.12,6.12,0,0,1-2.413-4.993,5.361,5.361,0,0,1,5.416-5.464,4.616,4.616,0,0,1,2.44.662,3.92,3.92,0,0,1,1.653,2.342l-5.558,2.248-1.822.144c.592,3,2.626,4.751,4.875,4.751a6.076,6.076,0,0,0,2.884-.827Zm-2.222-7.051c.449-.169.687-.308.687-.64a2.347,2.347,0,0,0-2.343-2.033c-.949,0-2.72.732-2.72,3.286,0,.4.046.829.07,1.254Z" transform="translate(-783.86 -1249.943)" fill="#f7f7f8"/><path d="M1228.518,1981.539v-1.576h-.008l-.481,1.576h-.149l-.484-1.576h-.007v1.576h-.172v-1.724h.3l.44,1.393h.005l.432-1.393h.3v1.724Z" transform="translate(-790.884 -1249.943)" fill="#f7f7f8"/><path d="M1116.716,1960.939h-1.183a7.958,7.958,0,0,0-.338-1.384h-1.709a7.217,7.217,0,0,0-.349,1.384h-1.113q0-.145.864-2.368a18.44,18.44,0,0,0,.865-2.449h1.4a20.089,20.089,0,0,0,.78,2.413,21.247,21.247,0,0,1,.785,2.4m-1.709-2.091a20.924,20.924,0,0,1-.633-2.063h-.059c0,.094-.218.784-.654,2.063Z" transform="translate(-747.774 -1241.076)" fill="#f9f9fa"/><path d="M1124.769,1960.937h-.913a9.124,9.124,0,0,0-1.017-1.6,8.826,8.826,0,0,1-1.214-2.089h-.059a13.2,13.2,0,0,1,.091,1.464c0,.61.018,1.353.053,2.226h-.91q.056-1.143.055-2.517c0-.9-.018-1.665-.055-2.3h1.1a6.927,6.927,0,0,0,.913,1.565,9.141,9.141,0,0,1,1.117,1.973h.056a13.769,13.769,0,0,1-.089-1.481c0-.669-.017-1.352-.052-2.057h.925q-.05.917-.051,2.3t.051,2.517" transform="translate(-751.058 -1241.076)" fill="#f9f9fa"/><path d="M1133.277,1958.349a2.732,2.732,0,0,1-.672,1.837,2.357,2.357,0,0,1-1.888.784q-.546,0-1.509-.044.049-1.118.048-2.519,0-1.348-.048-2.3h.647c.106,0,.264,0,.474-.011s.346-.01.412-.01a2.489,2.489,0,0,1,1.936.667,2.3,2.3,0,0,1,.6,1.6m-1.008.16a1.786,1.786,0,0,0-.415-1.2,1.57,1.57,0,0,0-1.265-.486,3.822,3.822,0,0,0-.437.032q.038.741.036,1.548c0,.587.013,1.173.038,1.753a2.553,2.553,0,0,0,.48.048,1.405,1.405,0,0,0,1.18-.495,1.912,1.912,0,0,0,.383-1.2" transform="translate(-754.205 -1241.063)" fill="#f9f9fa"/><path d="M1141.28,1960.926h-1.094a7.294,7.294,0,0,0-.659-1.616.86.86,0,0,0-.74-.308c-.143,0-.281,0-.411,0,0,.634.011,1.272.035,1.92h-1.031q.051-1.118.05-2.519,0-1.348-.05-2.3h.642c.073,0,.227,0,.464-.011s.452-.01.652-.01q1.7,0,1.7,1.162a1.305,1.305,0,0,1-.97,1.284v.054a1.17,1.17,0,0,1,.655.582,12.73,12.73,0,0,1,.758,1.757m-1.387-3.4q0-.734-.947-.735a3.3,3.3,0,0,0-.613.051c.027.384.041.881.041,1.495.135,0,.25.009.342.009.786,0,1.177-.274,1.177-.819" transform="translate(-757.263 -1241.063)" fill="#f9f9fa"/><path d="M1149.268,1958.374a2.659,2.659,0,0,1-.694,1.884,2.252,2.252,0,0,1-1.719.747,2.174,2.174,0,0,1-1.637-.685,2.428,2.428,0,0,1-.658-1.745,2.651,2.651,0,0,1,.7-1.882,2.255,2.255,0,0,1,1.72-.748,2.175,2.175,0,0,1,1.635.683,2.424,2.424,0,0,1,.657,1.745m-1.019.109a1.911,1.911,0,0,0-.4-1.256,1.22,1.22,0,0,0-.976-.481,1.129,1.129,0,0,0-.916.485,1.935,1.935,0,0,0-.379,1.226,1.905,1.905,0,0,0,.4,1.253,1.221,1.221,0,0,0,.976.482,1.12,1.12,0,0,0,.917-.487,1.934,1.934,0,0,0,.378-1.222" transform="translate(-759.949 -1241.01)" fill="#f9f9fa"/><path d="M1154.8,1960.937h-1.046q.048-1.143.047-2.517c0-.9-.016-1.665-.047-2.3h1.046q-.047.931-.048,2.3,0,1.394.048,2.517" transform="translate(-763.392 -1241.076)" fill="#f9f9fa"/><path d="M1161.561,1958.349a2.737,2.737,0,0,1-.672,1.837,2.353,2.353,0,0,1-1.886.784q-.547,0-1.51-.044.047-1.118.049-2.519,0-1.348-.049-2.3h.647c.1,0,.263,0,.474-.011s.346-.01.41-.01a2.485,2.485,0,0,1,1.936.667,2.3,2.3,0,0,1,.6,1.6m-1.009.16a1.785,1.785,0,0,0-.414-1.2,1.57,1.57,0,0,0-1.266-.486,3.86,3.86,0,0,0-.436.032q.037.741.038,1.548c0,.587.013,1.173.036,1.753a2.572,2.572,0,0,0,.481.048,1.4,1.4,0,0,0,1.178-.495,1.9,1.9,0,0,0,.383-1.2" transform="translate(-764.79 -1241.063)" fill="#f9f9fa"/><path d="M1172.558,1960.939h-1.184a7.95,7.95,0,0,0-.336-1.384h-1.709a7.169,7.169,0,0,0-.348,1.384h-1.114q0-.145.862-2.368a18.429,18.429,0,0,0,.867-2.449h1.4a20.47,20.47,0,0,0,.782,2.413,21.168,21.168,0,0,1,.783,2.4m-1.71-2.091a21.46,21.46,0,0,1-.632-2.063h-.059c0,.094-.219.784-.653,2.063Z" transform="translate(-768.673 -1241.076)" fill="#f9f9fa"/><path d="M1180.159,1957.372a1.443,1.443,0,0,1-.656,1.306,2.944,2.944,0,0,1-1.612.42,1.95,1.95,0,0,1-.247-.009q0,.7.039,1.837h-1.04q.049-1.072.05-2.519c0-.889-.017-1.654-.05-2.3h.646c.091,0,.265,0,.524-.011s.484-.01.674-.01a2.116,2.116,0,0,1,1.187.317,1.077,1.077,0,0,1,.485.967m-.954.2q0-.793-1.051-.792a2.886,2.886,0,0,0-.555.055c.026.468.041.994.041,1.584.059,0,.133.006.214.006q1.352,0,1.351-.854" transform="translate(-771.957 -1241.063)" fill="#f9f9fa"/><path d="M1187.247,1957.372a1.444,1.444,0,0,1-.655,1.306,2.946,2.946,0,0,1-1.612.42,1.977,1.977,0,0,1-.247-.009q0,.7.04,1.837h-1.039q.05-1.072.05-2.519c0-.889-.016-1.654-.05-2.3h.645c.09,0,.266,0,.524-.011s.483-.01.673-.01a2.125,2.125,0,0,1,1.189.317,1.079,1.079,0,0,1,.483.967m-.953.2q0-.793-1.051-.792a2.882,2.882,0,0,0-.554.055c.027.468.04.994.04,1.584.062,0,.134.006.215.006q1.35,0,1.35-.854" transform="translate(-774.61 -1241.063)" fill="#f9f9fa"/><path d="M1198.124,1958.374a2.657,2.657,0,0,1-.695,1.884,2.256,2.256,0,0,1-1.72.747,2.167,2.167,0,0,1-1.635-.685,2.417,2.417,0,0,1-.66-1.745,2.654,2.654,0,0,1,.7-1.882,2.258,2.258,0,0,1,1.721-.748,2.171,2.171,0,0,1,1.634.683,2.42,2.42,0,0,1,.658,1.745m-1.02.109a1.912,1.912,0,0,0-.4-1.256,1.22,1.22,0,0,0-.976-.481,1.129,1.129,0,0,0-.917.485,1.929,1.929,0,0,0-.378,1.226,1.907,1.907,0,0,0,.4,1.253,1.217,1.217,0,0,0,.976.482,1.121,1.121,0,0,0,.917-.487,1.94,1.94,0,0,0,.378-1.222" transform="translate(-778.232 -1241.01)" fill="#f9f9fa"/><path d="M1206.578,1960.937h-.913a9.18,9.18,0,0,0-1.018-1.6,8.785,8.785,0,0,1-1.212-2.089h-.06a13.2,13.2,0,0,1,.092,1.464c0,.61.017,1.353.052,2.226h-.91c.039-.762.055-1.6.055-2.517s-.017-1.665-.055-2.3h1.1a6.932,6.932,0,0,0,.913,1.565,9.193,9.193,0,0,1,1.118,1.973h.055a13.741,13.741,0,0,1-.088-1.481c0-.669-.019-1.352-.053-2.057h.924q-.052.917-.051,2.3t.051,2.517" transform="translate(-781.675 -1241.076)" fill="#f9f9fa"/></g></svg>