<svg xmlns="http://www.w3.org/2000/svg" width="166.436" height="37.759" viewBox="0 0 166.436 37.759"><g transform="translate(-80 -32.4)"><g transform="translate(125.275 41.979)"><path d="M316.39,454.6h-7.08a1.332,1.332,0,0,0-.893.258.907.907,0,0,0-.317.734.972.972,0,0,0,.317.734,1.3,1.3,0,0,0,.893.258h1.249v13.763H309.31a1.331,1.331,0,0,0-.893.258.907.907,0,0,0-.317.734.9.9,0,0,0,.317.714,1.3,1.3,0,0,0,.893.278h7.04a1.3,1.3,0,0,0,.892-.278.993.993,0,0,0,.317-.714.971.971,0,0,0-.317-.734,1.3,1.3,0,0,0-.892-.258h-3.788v-4.958h3.431a7.255,7.255,0,0,0,2.221-.3,7.764,7.764,0,0,0,2.36-1.249,4.881,4.881,0,0,0,1.9-3.907,4.991,4.991,0,0,0-1.706-3.748A6.231,6.231,0,0,0,316.39,454.6Zm4.085,5.355a3,3,0,0,1-.476,1.567,3.776,3.776,0,0,1-1.567,1.329,5.1,5.1,0,0,1-2.36.555h-3.49v-6.8h3.946a3.941,3.941,0,0,1,2.856,1.051A3.086,3.086,0,0,1,320.475,459.955Z" transform="translate(-308.1 -454.223)" fill="#fff"/><path d="M403.176,470.366H402.5L396.552,454.6h-6.406a1.331,1.331,0,0,0-.892.258.907.907,0,0,0-.317.734.971.971,0,0,0,.317.734,1.3,1.3,0,0,0,.892.258h3.034l-5.1,13.763h-.674a1.331,1.331,0,0,0-.892.258.907.907,0,0,0-.317.734.9.9,0,0,0,.317.714,1.3,1.3,0,0,0,.892.278h4.561a1.3,1.3,0,0,0,.892-.278.993.993,0,0,0,.317-.714.971.971,0,0,0-.317-.734,1.3,1.3,0,0,0-.892-.258h-1.785l1.349-3.669h7.477l1.368,3.669h-1.765a1.3,1.3,0,0,0-.892.258.907.907,0,0,0-.317.734.894.894,0,0,0,.317.714,1.32,1.32,0,0,0,.912.278h4.541a1.3,1.3,0,0,0,.892-.278.993.993,0,0,0,.317-.714.971.971,0,0,0-.317-.734A1.593,1.593,0,0,0,403.176,470.366Zm-7.952-13.624,3.014,7.953h-5.949Z" transform="translate(-370.711 -454.223)" fill="#fff"/><path d="M496.8,454.6h-3.332a1.3,1.3,0,0,0-.892.258.907.907,0,0,0-.317.734.972.972,0,0,0,.317.734,1.3,1.3,0,0,0,.892.258h.476l-3.728,5.751-3.828-5.751h.476a1.331,1.331,0,0,0,.892-.258.907.907,0,0,0,.317-.734.972.972,0,0,0-.317-.734,1.3,1.3,0,0,0-.892-.258H483.51a1.331,1.331,0,0,0-.892.258.907.907,0,0,0-.317.734.971.971,0,0,0,.317.734,1.3,1.3,0,0,0,.892.258h.516l5.176,7.833v5.93h-2.776a1.207,1.207,0,0,0-.892.278.972.972,0,0,0-.317.734.894.894,0,0,0,.317.714,1.3,1.3,0,0,0,.892.278h7.556a1.3,1.3,0,0,0,.892-.278.993.993,0,0,0,.317-.714.971.971,0,0,0-.317-.734,1.3,1.3,0,0,0-.892-.258H491.2v-5.93l5.1-7.834h.515a1.331,1.331,0,0,0,.893-.258.907.907,0,0,0,.317-.734.972.972,0,0,0-.317-.734A1.429,1.429,0,0,0,496.8,454.6Z" transform="translate(-447.753 -454.223)" fill="#fff"/><path d="M588.871,461.6a16.166,16.166,0,0,0-3.53-.853,16.341,16.341,0,0,1-2.122-.456,4.132,4.132,0,0,1-1.15-.555,2.334,2.334,0,0,1-.754-.833,2.173,2.173,0,0,1-.278-1.13,2.71,2.71,0,0,1,1.051-2.142,4.3,4.3,0,0,1,2.955-.932,4.354,4.354,0,0,1,2.856.892,2.627,2.627,0,0,1,1.111,1.9,1.315,1.315,0,0,0,.3.833.943.943,0,0,0,.714.3.972.972,0,0,0,.734-.317,1.3,1.3,0,0,0,.258-.892v-3.114a1.331,1.331,0,0,0-.258-.892.907.907,0,0,0-.734-.317.972.972,0,0,0-.734.317,1.039,1.039,0,0,0-.238.516A6.922,6.922,0,0,0,585,452.7a6.172,6.172,0,0,0-4.3,1.487,4.663,4.663,0,0,0-1.666,3.589,3.948,3.948,0,0,0,1.487,3.292,10.118,10.118,0,0,0,4.542,1.626,14.079,14.079,0,0,1,2.816.654,3.064,3.064,0,0,1,1.349,1.051,2.528,2.528,0,0,1,.436,1.487,3.115,3.115,0,0,1-1.19,2.419,5.044,5.044,0,0,1-3.371,1.051,5.3,5.3,0,0,1-3.411-1.011,2.992,2.992,0,0,1-1.289-2.142,1.217,1.217,0,0,0-.3-.813.942.942,0,0,0-.714-.3.972.972,0,0,0-.734.317,1.3,1.3,0,0,0-.258.892v3.371a1.3,1.3,0,0,0,.278.893.993.993,0,0,0,.714.317.972.972,0,0,0,.734-.317,1.094,1.094,0,0,0,.258-.694,7.335,7.335,0,0,0,4.7,1.507,7.02,7.02,0,0,0,4.76-1.567,5.012,5.012,0,0,0,1.8-3.867,4.617,4.617,0,0,0-.714-2.578A4.429,4.429,0,0,0,588.871,461.6Z" transform="translate(-524.795 -452.7)" fill="#fff" opacity="0.653"/><path d="M676.7,454.6h-3.332a1.3,1.3,0,0,0-.892.258.908.908,0,0,0-.317.734.972.972,0,0,0,.317.734,1.3,1.3,0,0,0,.892.258h.476l-3.728,5.751-3.828-5.751h.476a1.331,1.331,0,0,0,.893-.258.907.907,0,0,0,.317-.734.972.972,0,0,0-.317-.734,1.3,1.3,0,0,0-.893-.258H663.41a1.331,1.331,0,0,0-.892.258.907.907,0,0,0-.317.734.972.972,0,0,0,.317.734,1.3,1.3,0,0,0,.892.258h.516l5.176,7.833v5.93h-2.776a1.207,1.207,0,0,0-.892.278.971.971,0,0,0-.317.734.894.894,0,0,0,.317.714,1.3,1.3,0,0,0,.892.278h7.536a1.3,1.3,0,0,0,.892-.278.993.993,0,0,0,.317-.714.971.971,0,0,0-.317-.734,1.3,1.3,0,0,0-.892-.258h-2.776v-5.93l5.1-7.834h.516a1.331,1.331,0,0,0,.892-.258.907.907,0,0,0,.317-.734.972.972,0,0,0-.317-.734A1.333,1.333,0,0,0,676.7,454.6Z" transform="translate(-591.976 -454.223)" fill="#fff" opacity="0.653"/><path d="M763.847,454.6h-4.5a1.208,1.208,0,0,0-.892.278,1.007,1.007,0,0,0,0,1.468,1.3,1.3,0,0,0,.892.258h1.864V468.78l-8.389-14.18H749.41a1.332,1.332,0,0,0-.892.258.907.907,0,0,0-.317.734.971.971,0,0,0,.317.734,1.3,1.3,0,0,0,.892.258h1.249v13.763h-.615a1.3,1.3,0,0,0-.892.258.907.907,0,0,0-.318.734.894.894,0,0,0,.318.714,1.319,1.319,0,0,0,.912.278h4.442a1.393,1.393,0,0,0,.912-.278.994.994,0,0,0,.317-.714.972.972,0,0,0-.317-.734,1.3,1.3,0,0,0-.892-.258h-1.864V458.19l8.369,14.16h2.181V456.583h.635a1.332,1.332,0,0,0,.892-.258.907.907,0,0,0,.317-.734.972.972,0,0,0-.317-.734A1.448,1.448,0,0,0,763.847,454.6Z" transform="translate(-660.921 -454.223)" fill="#fff" opacity="0.653"/><path d="M858.555,466.562a.957.957,0,0,0-.694-.278,1.106,1.106,0,0,0-.853.436,7.949,7.949,0,0,1-2.3,1.963,5.439,5.439,0,0,1-2.618.635,5.81,5.81,0,0,1-4.3-1.884,6.116,6.116,0,0,1-1.864-4.462v-2.142a5.579,5.579,0,0,1,.377-2.142,8.772,8.772,0,0,1,1.468-2.4,4.224,4.224,0,0,1,1.349-1.012,5.359,5.359,0,0,1,2.479-.575,5.848,5.848,0,0,1,3.589,1.21,2.546,2.546,0,0,1,1.17,1.884,1.26,1.26,0,0,0,.3.813.9.9,0,0,0,.694.3.972.972,0,0,0,.734-.317,1.3,1.3,0,0,0,.258-.892v-3.391a1.331,1.331,0,0,0-.258-.892.907.907,0,0,0-.734-.317.972.972,0,0,0-.734.317,1.3,1.3,0,0,0-.258.892h0a7.653,7.653,0,0,0-4.8-1.606,7.364,7.364,0,0,0-3.847,1.071,7.464,7.464,0,0,0-2.8,3.054,8.4,8.4,0,0,0-1.011,3.867v2.479a7.963,7.963,0,0,0,.377,2.439,8.6,8.6,0,0,0,1.428,2.419,10.462,10.462,0,0,0,1.745,1.825,6.833,6.833,0,0,0,1.824.972,8.037,8.037,0,0,0,2.816.536,7.541,7.541,0,0,0,3.173-.714,8.316,8.316,0,0,0,2.8-2.1,2.228,2.228,0,0,0,.734-1.289A.8.8,0,0,0,858.555,466.562Z" transform="translate(-737.642 -452.7)" fill="#fff" opacity="0.653"/></g><g transform="translate(80 32.4)"><path d="M4.14,0H33.619a4.14,4.14,0,0,1,4.14,4.14V33.619a4.14,4.14,0,0,1-4.14,4.14H4.14A4.14,4.14,0,0,1,0,33.619V4.14A4.14,4.14,0,0,1,4.14,0Z" fill="#fff"/><g transform="translate(5.95 4.263)"><path d="M17.491,28.736l-5.453-4.144-.445-.338a2.749,2.749,0,0,1-1.122.238A10.47,10.47,0,0,1,5.552,4.779l-.277-.218A2.5,2.5,0,0,1,4.3,2.9,2.553,2.553,0,0,1,6.822,0,2.431,2.431,0,0,1,8.369.555L13.822,4.7l.444.338A2.75,2.75,0,0,1,15.389,4.8a10.445,10.445,0,0,1,4.879,19.673l.277.219a2.537,2.537,0,0,1-1.527,4.561A2.489,2.489,0,0,1,17.491,28.736Zm-.218-11.007-4.145,5.454L18.6,27.328a.794.794,0,0,0,.456.158.753.753,0,0,0,.456-1.349L16.54,23.877A8.685,8.685,0,0,0,15.389,6.585a1.012,1.012,0,0,0-1.012.991.982.982,0,0,0,.992.991,6.706,6.706,0,0,1,.574,13.387l2.519-3.312a.739.739,0,0,0-.139-1.051.8.8,0,0,0-.456-.159A.73.73,0,0,0,17.273,17.729ZM6.207,2.062a.738.738,0,0,0,.138,1.051L9.32,5.374a8.685,8.685,0,0,0,1.151,17.294.992.992,0,0,0,0-1.984A6.705,6.705,0,0,1,9.9,7.3L7.378,10.609a.739.739,0,0,0,.138,1.052.8.8,0,0,0,.457.158.733.733,0,0,0,.595-.3l4.145-5.454L7.258,1.923A.794.794,0,0,0,6.8,1.765.823.823,0,0,0,6.207,2.062ZM5.552,14.02a4.918,4.918,0,0,0,4.919,4.919,2.783,2.783,0,0,1,2.478,1.53l2.9-3.81a2.537,2.537,0,0,1,2.024-1.012,2.5,2.5,0,0,1,1.527.515,2.419,2.419,0,0,1,.635.714,4.785,4.785,0,0,0,.278-1.607,4.917,4.917,0,0,0-4.919-4.918,2.785,2.785,0,0,1-2.479-1.53l-2.9,3.81a2.534,2.534,0,0,1-2.022,1.011,2.488,2.488,0,0,1-1.527-.515,2.419,2.419,0,0,1-.635-.714A4.88,4.88,0,0,0,5.552,14.02Z" transform="translate(0 0)" fill="#14274e"/></g></g></g></svg>