<svg xmlns="http://www.w3.org/2000/svg" width="28.245" height="28.245" viewBox="0 0 28.245 28.245"><path d="M26.227,2.25H2.011A2.026,2.026,0,0,0,0,4.286V28.458a2.026,2.026,0,0,0,2.011,2.036H26.227a2.032,2.032,0,0,0,2.017-2.036V4.286A2.032,2.032,0,0,0,26.227,2.25ZM8.536,26.46H4.35V12.98H8.543V26.46ZM6.443,11.14A2.427,2.427,0,1,1,8.871,8.712,2.428,2.428,0,0,1,6.443,11.14ZM24.229,26.46H20.042V19.9c0-1.564-.032-3.575-2.175-3.575-2.181,0-2.516,1.7-2.516,3.461v6.67H11.166V12.98h4.016v1.841h.057A4.409,4.409,0,0,1,19.2,12.646c4.237,0,5.025,2.793,5.025,6.424Z" transform="translate(0 -2.25)" fill="#fff"/></svg>