<svg xmlns="http://www.w3.org/2000/svg" width="32.28" height="26.217" viewBox="0 0 32.28 26.217"><path d="M28.962,9.915c.02.287.02.574.02.86,0,8.746-6.657,18.823-18.823,18.823A18.7,18.7,0,0,1,0,26.628a13.686,13.686,0,0,0,1.6.082,13.249,13.249,0,0,0,8.213-2.826A6.627,6.627,0,0,1,3.625,19.3a8.343,8.343,0,0,0,1.249.1,7,7,0,0,0,1.741-.225,6.617,6.617,0,0,1-5.3-6.493V12.6a6.663,6.663,0,0,0,2.99.84A6.626,6.626,0,0,1,2.253,4.589a18.8,18.8,0,0,0,13.641,6.923A7.468,7.468,0,0,1,15.73,10,6.622,6.622,0,0,1,27.18,5.47a13.025,13.025,0,0,0,4.2-1.6A6.6,6.6,0,0,1,28.47,7.518a13.263,13.263,0,0,0,3.81-1.024,14.221,14.221,0,0,1-3.318,3.42Z" transform="translate(0 -3.381)" fill="#fff"/></svg>