<svg xmlns="http://www.w3.org/2000/svg" width="29.9" height="29.9" viewBox="0 0 29.9 29.9"><g transform="translate(-161.5 -2757.5)"><g transform="translate(163 2759)"><path d="M9.725,3h13.45A6.725,6.725,0,0,1,29.9,9.725v13.45A6.725,6.725,0,0,1,23.175,29.9H9.725A6.725,6.725,0,0,1,3,23.175V9.725A6.725,6.725,0,0,1,9.725,3Z" transform="translate(-3 -3)" fill="none" stroke="#fff" stroke-linecap="round" stroke-linejoin="round" stroke-width="3"/><path d="M22.767,16.526a5.38,5.38,0,1,1-4.533-4.533,5.38,5.38,0,0,1,4.533,4.533Z" transform="translate(-3.937 -3.923)" fill="none" stroke="#fff" stroke-linecap="round" stroke-linejoin="round" stroke-width="3"/><path d="M26.25,9.75h0" transform="translate(-5.403 -3.698)" fill="none" stroke="#fff" stroke-linecap="round" stroke-linejoin="round" stroke-width="3"/></g></g></svg>