<svg xmlns="http://www.w3.org/2000/svg" width="20.519" height="14.954" viewBox="0 0 20.519 14.954"><g transform="translate(-1121 -2324.873)"><path d="M17.223,13.669,11.564,8.015a1.069,1.069,0,1,1,1.514-1.509l6.411,6.406a1.067,1.067,0,0,1,.031,1.474l-6.437,6.451a1.069,1.069,0,0,1-1.514-1.509Z" transform="translate(1109.75 2318.68)" fill="#fff"/><path d="M17.223,13.669,11.564,8.015a1.069,1.069,0,1,1,1.514-1.509l6.411,6.406a1.067,1.067,0,0,1,.031,1.474l-6.437,6.451a1.069,1.069,0,0,1-1.514-1.509Z" transform="translate(1121.719 2318.68)" fill="#fff"/></g></svg>