<svg xmlns="http://www.w3.org/2000/svg" xmlns:xlink="http://www.w3.org/1999/xlink" width="187.172" height="42.464" viewBox="0 0 187.172 42.464">
  <defs>
    <linearGradient id="linear-gradient" y1="-0.068" x2="1.107" y2="1.21" gradientUnits="objectBoundingBox">
      <stop offset="0" stop-color="#394867"/>
      <stop offset="1" stop-color="#14274e"/>
    </linearGradient>
    <filter id="Union_1" x="2.191" y="0.295" width="38.037" height="41.896" filterUnits="userSpaceOnUse">
      <feOffset input="SourceAlpha"/>
      <feGaussianBlur stdDeviation="1.5" result="blur"/>
      <feFlood flood-opacity="0.314"/>
      <feComposite operator="in" in2="blur"/>
      <feComposite in="SourceGraphic"/>
    </filter>
  </defs>
  <g id="Group_9864" data-name="Group 9864" transform="translate(-80 -32.4)">
    <g id="Group_1" data-name="Group 1" transform="translate(130.916 43.172)">
      <path id="Path_1" data-name="Path 1" d="M317.422,454.6H309.46a1.5,1.5,0,0,0-1,.29,1.02,1.02,0,0,0-.357.825,1.093,1.093,0,0,0,.357.825,1.459,1.459,0,0,0,1,.29h1.4v15.478h-1.4a1.5,1.5,0,0,0-1,.29,1.02,1.02,0,0,0-.357.825,1.006,1.006,0,0,0,.357.8,1.461,1.461,0,0,0,1,.312h7.917a1.461,1.461,0,0,0,1-.312,1.117,1.117,0,0,0,.357-.8,1.092,1.092,0,0,0-.357-.825,1.459,1.459,0,0,0-1-.29h-4.26v-5.576h3.858a8.157,8.157,0,0,0,2.5-.335,8.731,8.731,0,0,0,2.654-1.4,5.489,5.489,0,0,0,2.141-4.394,5.612,5.612,0,0,0-1.918-4.215A7.007,7.007,0,0,0,317.422,454.6Zm4.594,6.022a3.369,3.369,0,0,1-.535,1.762,4.247,4.247,0,0,1-1.762,1.494,5.738,5.738,0,0,1-2.654.624H313.14v-7.65h4.438a4.432,4.432,0,0,1,3.212,1.182A3.471,3.471,0,0,1,322.017,460.622Z" transform="translate(-308.1 -454.176)"/>
      <path id="Path_2" data-name="Path 2" d="M405.291,472.33h-.758l-6.691-17.73h-7.2a1.5,1.5,0,0,0-1,.29,1.02,1.02,0,0,0-.357.825,1.093,1.093,0,0,0,.357.825,1.459,1.459,0,0,0,1,.29h3.412l-5.732,15.478h-.758a1.5,1.5,0,0,0-1,.29,1.02,1.02,0,0,0-.357.825,1.006,1.006,0,0,0,.357.8,1.461,1.461,0,0,0,1,.312h5.13a1.461,1.461,0,0,0,1-.312,1.117,1.117,0,0,0,.357-.8,1.092,1.092,0,0,0-.357-.825,1.458,1.458,0,0,0-1-.29h-2.007l1.517-4.126h8.408l1.539,4.126h-1.985a1.458,1.458,0,0,0-1,.29,1.02,1.02,0,0,0-.357.825,1.006,1.006,0,0,0,.357.8,1.485,1.485,0,0,0,1.026.312h5.107a1.461,1.461,0,0,0,1-.312,1.117,1.117,0,0,0,.357-.8,1.092,1.092,0,0,0-.357-.825A1.791,1.791,0,0,0,405.291,472.33Zm-8.943-15.322,3.39,8.943h-6.691Z" transform="translate(-368.782 -454.176)"/>
      <path id="Path_3" data-name="Path 3" d="M498.6,454.6h-3.747a1.459,1.459,0,0,0-1,.29,1.02,1.02,0,0,0-.357.825,1.093,1.093,0,0,0,.357.825,1.459,1.459,0,0,0,1,.29h.535L491.2,463.3l-4.3-6.468h.535a1.5,1.5,0,0,0,1-.29,1.02,1.02,0,0,0,.357-.825,1.093,1.093,0,0,0-.357-.825,1.459,1.459,0,0,0-1-.29H483.66a1.5,1.5,0,0,0-1,.29,1.02,1.02,0,0,0-.357.825,1.092,1.092,0,0,0,.357.825,1.458,1.458,0,0,0,1,.29h.58l5.821,8.809v6.669h-3.122a1.358,1.358,0,0,0-1,.312,1.093,1.093,0,0,0-.357.825,1,1,0,0,0,.357.8,1.46,1.46,0,0,0,1,.312h8.5a1.459,1.459,0,0,0,1-.312,1.117,1.117,0,0,0,.357-.8,1.093,1.093,0,0,0-.357-.825,1.458,1.458,0,0,0-1-.29h-3.122v-6.668l5.732-8.81h.58a1.5,1.5,0,0,0,1-.29,1.02,1.02,0,0,0,.357-.825,1.093,1.093,0,0,0-.357-.825A1.608,1.608,0,0,0,498.6,454.6Z" transform="translate(-443.449 -454.176)"/>
      <path id="Path_4" data-name="Path 4" d="M590.176,462.714a18.179,18.179,0,0,0-3.97-.959,18.375,18.375,0,0,1-2.386-.513,4.646,4.646,0,0,1-1.294-.625,2.625,2.625,0,0,1-.847-.937,2.445,2.445,0,0,1-.312-1.271A3.047,3.047,0,0,1,582.548,456a4.832,4.832,0,0,1,3.323-1.048,4.9,4.9,0,0,1,3.212,1,2.954,2.954,0,0,1,1.249,2.141,1.479,1.479,0,0,0,.335.937,1.06,1.06,0,0,0,.8.335,1.093,1.093,0,0,0,.825-.357,1.458,1.458,0,0,0,.29-1v-3.5a1.5,1.5,0,0,0-.29-1,1.02,1.02,0,0,0-.825-.357,1.093,1.093,0,0,0-.825.357,1.169,1.169,0,0,0-.268.58,7.784,7.784,0,0,0-4.55-1.383,6.941,6.941,0,0,0-4.84,1.673,5.244,5.244,0,0,0-1.873,4.037,4.44,4.44,0,0,0,1.673,3.7,11.379,11.379,0,0,0,5.107,1.829,15.83,15.83,0,0,1,3.167.736,3.445,3.445,0,0,1,1.517,1.182,2.842,2.842,0,0,1,.491,1.673,3.5,3.5,0,0,1-1.338,2.721,5.673,5.673,0,0,1-3.791,1.182A5.955,5.955,0,0,1,582.1,470.3a3.365,3.365,0,0,1-1.45-2.409,1.369,1.369,0,0,0-.335-.914,1.06,1.06,0,0,0-.8-.334,1.093,1.093,0,0,0-.825.357,1.458,1.458,0,0,0-.29,1v3.791a1.46,1.46,0,0,0,.312,1,1.117,1.117,0,0,0,.8.357,1.093,1.093,0,0,0,.825-.357,1.231,1.231,0,0,0,.29-.781,8.249,8.249,0,0,0,5.286,1.695,7.9,7.9,0,0,0,5.353-1.762,5.637,5.637,0,0,0,2.03-4.349,5.192,5.192,0,0,0-.8-2.9A4.981,4.981,0,0,0,590.176,462.714Z" transform="translate(-518.116 -452.7)" opacity="0.653"/>
      <path id="Path_5" data-name="Path 5" d="M678.5,454.6h-3.747a1.459,1.459,0,0,0-1,.29,1.02,1.02,0,0,0-.357.825,1.093,1.093,0,0,0,.357.825,1.459,1.459,0,0,0,1,.29h.535L671.1,463.3l-4.3-6.468h.535a1.5,1.5,0,0,0,1-.29,1.02,1.02,0,0,0,.357-.825,1.093,1.093,0,0,0-.357-.825,1.459,1.459,0,0,0-1-.29H663.56a1.5,1.5,0,0,0-1,.29,1.02,1.02,0,0,0-.357.825,1.093,1.093,0,0,0,.357.825,1.459,1.459,0,0,0,1,.29h.58l5.821,8.809v6.669h-3.122a1.358,1.358,0,0,0-1,.312,1.093,1.093,0,0,0-.357.825,1.006,1.006,0,0,0,.357.8,1.46,1.46,0,0,0,1,.312h8.475a1.459,1.459,0,0,0,1-.312,1.116,1.116,0,0,0,.357-.8,1.092,1.092,0,0,0-.357-.825,1.458,1.458,0,0,0-1-.29h-3.122v-6.668l5.732-8.81h.58a1.5,1.5,0,0,0,1-.29,1.02,1.02,0,0,0,.357-.825,1.093,1.093,0,0,0-.357-.825A1.5,1.5,0,0,0,678.5,454.6Z" transform="translate(-583.227 -454.176)" opacity="0.653"/>
      <path id="Path_6" data-name="Path 6" d="M765.8,454.6h-5.063a1.358,1.358,0,0,0-1,.312,1.133,1.133,0,0,0,0,1.65,1.458,1.458,0,0,0,1,.29h2.1v13.694L753.4,454.6H749.56a1.5,1.5,0,0,0-1,.29,1.02,1.02,0,0,0-.357.825,1.092,1.092,0,0,0,.357.825,1.458,1.458,0,0,0,1,.29h1.405v15.478h-.691a1.458,1.458,0,0,0-1,.29,1.02,1.02,0,0,0-.357.825,1.006,1.006,0,0,0,.357.8,1.484,1.484,0,0,0,1.026.312h5a1.566,1.566,0,0,0,1.026-.312,1.117,1.117,0,0,0,.357-.8,1.093,1.093,0,0,0-.357-.825,1.459,1.459,0,0,0-1-.29h-2.1V458.637l9.412,15.924h2.453V456.83h.714a1.5,1.5,0,0,0,1-.29,1.02,1.02,0,0,0,.357-.825,1.093,1.093,0,0,0-.357-.825A1.628,1.628,0,0,0,765.8,454.6Z" transform="translate(-650.047 -454.176)" opacity="0.653"/>
      <path id="Path_7" data-name="Path 7" d="M860.381,468.289a1.076,1.076,0,0,0-.781-.312,1.244,1.244,0,0,0-.959.491,8.941,8.941,0,0,1-2.587,2.208,6.118,6.118,0,0,1-2.944.714,6.535,6.535,0,0,1-4.84-2.119,6.878,6.878,0,0,1-2.1-5.018v-2.409a6.274,6.274,0,0,1,.424-2.409,9.864,9.864,0,0,1,1.651-2.7,4.748,4.748,0,0,1,1.516-1.138,6.026,6.026,0,0,1,2.788-.647,6.577,6.577,0,0,1,4.037,1.36,2.864,2.864,0,0,1,1.316,2.119,1.416,1.416,0,0,0,.335.914,1.011,1.011,0,0,0,.781.335,1.093,1.093,0,0,0,.825-.357,1.458,1.458,0,0,0,.29-1v-3.814a1.5,1.5,0,0,0-.29-1,1.02,1.02,0,0,0-.825-.357,1.093,1.093,0,0,0-.825.357,1.458,1.458,0,0,0-.29,1h0a8.607,8.607,0,0,0-5.4-1.806,8.282,8.282,0,0,0-4.327,1.2,8.4,8.4,0,0,0-3.145,3.435,9.447,9.447,0,0,0-1.137,4.349v2.788a8.953,8.953,0,0,0,.424,2.743,9.674,9.674,0,0,0,1.606,2.721,11.765,11.765,0,0,0,1.963,2.052,7.683,7.683,0,0,0,2.052,1.093,9.039,9.039,0,0,0,3.167.6,8.48,8.48,0,0,0,3.568-.8,9.353,9.353,0,0,0,3.145-2.364,2.506,2.506,0,0,0,.825-1.45A.9.9,0,0,0,860.381,468.289Z" transform="translate(-724.403 -452.7)" opacity="0.653"/>
    </g>
    <g id="Group_9863" data-name="Group 9863" transform="translate(80 32.4)">
      <path id="Path_61147" data-name="Path 61147" d="M4.656,0H37.808a4.656,4.656,0,0,1,4.656,4.656V37.808a4.656,4.656,0,0,1-4.656,4.656H4.656A4.656,4.656,0,0,1,0,37.808V4.656A4.656,4.656,0,0,1,4.656,0Z" fill="url(#linear-gradient)"/>
      <g id="Group_2" data-name="Group 2" transform="translate(6.691 4.795)">
        <g transform="matrix(1, 0, 0, 1, -6.69, -4.79)" filter="url(#Union_1)">
          <path id="Union_1-2" data-name="Union 1" d="M19.67,32.316l-6.133-4.66-.5-.381a3.092,3.092,0,0,1-1.261.268A11.774,11.774,0,0,1,6.244,5.374l-.311-.245A2.808,2.808,0,0,1,4.84,3.256,2.871,2.871,0,0,1,7.672,0a2.734,2.734,0,0,1,1.74.624l6.133,4.662.5.38A3.093,3.093,0,0,1,17.306,5.4a11.746,11.746,0,0,1,5.487,22.124l.311.246A2.854,2.854,0,0,1,21.387,32.9,2.8,2.8,0,0,1,19.67,32.316Zm-.245-12.378-4.662,6.134,6.156,4.662a.893.893,0,0,0,.513.178.847.847,0,0,0,.513-1.517L18.6,26.852A9.767,9.767,0,0,0,17.306,7.4,1.138,1.138,0,0,0,16.168,8.52a1.1,1.1,0,0,0,1.116,1.115,7.541,7.541,0,0,1,.646,15.055l2.833-3.725a.831.831,0,0,0-.156-1.181.9.9,0,0,0-.513-.179A.821.821,0,0,0,19.425,19.938ZM6.981,2.319A.83.83,0,0,0,7.136,3.5l3.346,2.542a9.767,9.767,0,0,0,1.294,19.448,1.115,1.115,0,0,0,0-2.231,7.541,7.541,0,0,1-.647-15.054L8.3,11.931a.831.831,0,0,0,.155,1.183.894.894,0,0,0,.514.178.825.825,0,0,0,.669-.334L14.3,6.823,8.162,2.163a.893.893,0,0,0-.513-.178A.926.926,0,0,0,6.981,2.319ZM6.244,15.767A5.53,5.53,0,0,0,11.776,21.3a3.13,3.13,0,0,1,2.787,1.72l3.256-4.284A2.853,2.853,0,0,1,20.094,17.6a2.806,2.806,0,0,1,1.717.579,2.721,2.721,0,0,1,.714.8,5.381,5.381,0,0,0,.313-1.807,5.53,5.53,0,0,0-5.532-5.53,3.132,3.132,0,0,1-2.788-1.721l-3.256,4.285a2.85,2.85,0,0,1-2.274,1.137,2.8,2.8,0,0,1-1.717-.579,2.721,2.721,0,0,1-.714-.8A5.488,5.488,0,0,0,6.244,15.767Z" transform="translate(6.69 4.79)" fill="#fff"/>
        </g>
      </g>
    </g>
  </g>
</svg>
