<svg xmlns="http://www.w3.org/2000/svg" width="83.523" height="107.003" viewBox="0 0 83.523 107.003">
  <g id="recycle" transform="matrix(-0.391, 0.921, -0.921, -0.391, 83.523, 19.729)">
    <path id="Path_62213" data-name="Path 62213" d="M94.623,23.848,85.752,48.413a3.119,3.119,0,0,1-1.613,1.768,3.211,3.211,0,0,1-1.3.31,3.02,3.02,0,0,1-1.055-.186l-24.6-8.9a3.083,3.083,0,0,1-1.861-3.97,3.12,3.12,0,0,1,3.97-1.861L77.657,42.21A62.09,62.09,0,0,0,45.183,10.666c-13.9-5.893-28.38-5.955-40.756-.093A3.1,3.1,0,0,1,1.791,4.959c13.988-6.607,30.241-6.607,45.842-.031A68.641,68.641,0,0,1,82.775,38.364l6.017-16.625a3.1,3.1,0,1,1,5.831,2.109Z" transform="translate(0 0)" fill="#edb538"/>
  </g>
</svg>
