<svg xmlns="http://www.w3.org/2000/svg" width="54.867" height="53.283" viewBox="0 0 54.867 53.283"><g transform="translate(-0.25)"><path d="M5.508,47.189h.963m42.425,0H6.471m42.425,0V19.672H6.471V44.687m42.425,2.5h5.471v-2.5h-1.1m-4.372,2.5v-2.5h4.372M15.17,8v2.5c.059,1.681.218,2.772.218,2.772-2.345,0-2.873,4.077-1.485,6.4M40.2,8v2.5c-.059,1.681-.218,2.772-.218,2.772,2.345,0,2.873,4.077,1.485,6.4M6.471,47.189H1v-2.5H2.1m4.372,2.5v-2.5m0-6.466L3.6,39.78A4.078,4.078,0,0,0,1.834,43.2,4.286,4.286,0,0,0,2.1,44.687m46.8-6.466,2.867,1.558a4.078,4.078,0,0,1,1.77,3.415,4.286,4.286,0,0,1-.265,1.492m-46.8,0H2.1" transform="translate(0 5.344)" fill="none" stroke="#18274b" stroke-linecap="round" stroke-linejoin="round" stroke-width="1.5"/><path d="M13,25.671a6.671,6.671,0,1,1,6.671,6.671A6.671,6.671,0,0,1,13,25.671Z" transform="translate(8.013 12.687)" fill="#edb538"/><path d="M19.677,16.343C28.748,13.8,29.841,10.762,32.185,5.5l.021.115c1.029,5.708,1.613,8.944,5.816,10.725,0,0,2.5-15.843-14.176-15.843S8,16.343,8,16.343c5.644-.725,8.137-2.086,11.674-5.837Z" transform="translate(4.671 0.334)" fill="#edb538"/><path d="M20.011,16.677h-.834a.834.834,0,0,0,1.059.8ZM32.519,5.837l.821-.148A.834.834,0,0,0,31.757,5.5Zm.021.115L33.36,5.8h0Zm5.816,10.725-.325.768a.834.834,0,0,0,1.149-.638Zm-30.019,0-.833.044a.834.834,0,0,0,.939.783ZM20.011,10.84h.834a.834.834,0,0,0-1.44-.572Zm-2.5,27.517a5.837,5.837,0,0,1,5.837-5.837V30.853a7.5,7.5,0,0,0-7.5,7.5Zm5.837-5.837a5.837,5.837,0,0,1,5.837,5.837h1.668a7.5,7.5,0,0,0-7.5-7.5Zm5.837,5.837a5.837,5.837,0,0,1-5.837,5.837v1.668a7.5,7.5,0,0,0,7.5-7.5Zm-5.837,5.837a5.837,5.837,0,0,1-5.837-5.837H15.841a7.5,7.5,0,0,0,7.5,7.5ZM20.236,17.48c4.6-1.29,7.3-2.737,9.147-4.621,1.827-1.865,2.746-4.1,3.9-6.683L31.757,5.5c-1.192,2.675-1.992,4.59-3.565,6.194-1.554,1.586-3.936,2.929-8.406,4.182ZM31.7,5.985l.021.115,1.641-.3-.021-.115Zm.021.115a30.7,30.7,0,0,0,1.78,7.035,8.12,8.12,0,0,0,4.531,4.311l.651-1.536a6.462,6.462,0,0,1-3.666-3.47A29.367,29.367,0,0,1,33.36,5.8Zm6.637,10.577c.824.13.824.13.824.129h0v0l0-.012.006-.041c.005-.035.012-.084.019-.147.016-.126.035-.307.054-.536.038-.456.072-1.1.058-1.878A17.648,17.648,0,0,0,38.3,8.467a12.107,12.107,0,0,0-4.394-5.84C31.632,1.024,28.484,0,24.18,0V1.668c4.035,0,6.828.956,8.771,2.324A10.442,10.442,0,0,1,36.74,9.044a15.985,15.985,0,0,1,.913,5.173c.013.711-.019,1.3-.053,1.711-.017.2-.034.364-.047.47-.007.053-.012.093-.016.118l0,.027v.005s0,0,0,0h0ZM24.18,0a17.782,17.782,0,0,0-9.968,2.612A13.924,13.924,0,0,0,9.251,8.4a18.807,18.807,0,0,0-1.611,5.7c-.1.774-.129,1.421-.14,1.878-.005.229,0,.41,0,.536,0,.063,0,.113,0,.148,0,.017,0,.031,0,.041v.018s0,0,.833-.043l.833-.043h0v-.005c0-.005,0-.014,0-.027s0-.065,0-.117c0-.106,0-.265,0-.469.009-.41.04-1,.128-1.712a17.143,17.143,0,0,1,1.463-5.191,12.257,12.257,0,0,1,4.368-5.106A16.133,16.133,0,0,1,24.18,1.668ZM8.443,17.5a20.607,20.607,0,0,0,6.9-1.867,19.187,19.187,0,0,0,5.276-4.225L19.4,10.268a17.566,17.566,0,0,1-4.818,3.882,18.993,18.993,0,0,1-6.356,1.7ZM19.177,10.84v5.837h1.668V10.84Z" transform="translate(4.338)" fill="#edb538"/><path d="M15.168,12.334a.834.834,0,1,1-.834-.834A.834.834,0,0,1,15.168,12.334Zm10.006,0a.834.834,0,1,1-.834-.834A.834.834,0,0,1,25.174,12.334Z" transform="translate(8.347 7.679)" fill="#14274e" stroke="#14274e" stroke-width="1"/></g></svg>